<?xml version="1.0" standalone="no"?>
<!DOCTYPE svg PUBLIC "-//W3C//DTD SVG 20010904//EN"
 "http://www.w3.org/TR/2001/REC-SVG-20010904/DTD/svg10.dtd">
<svg version="1.0" xmlns="http://www.w3.org/2000/svg"
 width="500.000000pt" height="500.000000pt" viewBox="0 0 500.000000 500.000000"
 preserveAspectRatio="xMidYMid meet">
<metadata>
Created by potrace 1.11, written by Peter Selinger 2001-2013
</metadata>
<g transform="translate(0.000000,500.000000) scale(0.100000,-0.100000)"
fill="#000000" stroke="none">
<path d="M2348 4905 c-2 -2 -37 -5 -78 -8 -366 -29 -751 -167 -1105 -395 -74
-47 -201 -138 -223 -159 -16 -15 -15 -66 1 -130 l13 -50 -41 -36 c-141 -123
-302 -307 -408 -469 -61 -94 -178 -320 -223 -433 -21 -55 -27 -86 -27 -145 0
-90 25 -156 101 -273 77 -117 83 -195 30 -338 l-36 -95 29 -20 c16 -10 30 -28
30 -39 1 -11 2 -49 4 -85 2 -61 12 -185 20 -240 41 -288 109 -516 216 -735 65
-132 60 -123 143 -249 239 -363 618 -630 1051 -740 252 -64 579 -80 855 -42
282 40 581 146 833 297 157 95 280 192 417 329 138 137 179 185 257 297 75
109 78 108 21 -10 -16 -33 -28 -61 -26 -62 6 -6 81 -35 83 -33 2 4 123 160
136 176 31 37 131 207 167 282 68 143 155 424 177 575 4 22 8 47 10 55 4 13 9
50 21 130 26 187 26 582 -1 710 -2 13 -7 42 -10 65 -17 116 -84 348 -140 478
-68 161 -199 374 -307 502 -78 91 -248 254 -341 327 -79 61 -262 188 -271 188
-2 0 -30 16 -62 35 -235 142 -580 270 -834 310 -25 4 -52 9 -60 10 -79 14
-411 29 -422 20z"/>
</g>
</svg>
