<?xml version="1.0" standalone="no"?>
<!DOCTYPE svg PUBLIC "-//W3C//DTD SVG 20010904//EN"
 "http://www.w3.org/TR/2001/REC-SVG-20010904/DTD/svg10.dtd">
<svg version="1.0" xmlns="http://www.w3.org/2000/svg"
 width="1000.000000pt" height="1000.000000pt" viewBox="0 0 1000.000000 1000.000000"
 preserveAspectRatio="xMidYMid meet">
<metadata>
Created by potrace 1.11, written by Peter Selinger 2001-2013
</metadata>
<g transform="translate(0.000000,1000.000000) scale(0.100000,-0.100000)"
fill="#000000" stroke="none">
<path d="M4605 9804 c-905 -74 -1770 -414 -2608 -1027 l-138 -102 4 -97 c3
-59 14 -127 28 -174 l23 -76 -70 -61 c-112 -98 -349 -334 -441 -440 -360 -408
-653 -902 -856 -1442 -42 -112 -49 -263 -18 -386 27 -109 92 -243 193 -396 94
-143 114 -203 124 -357 l6 -101 -75 -200 -75 -199 57 -35 c31 -19 57 -35 59
-36 1 -1 7 -96 12 -211 60 -1236 471 -2263 1195 -2989 606 -608 1356 -951
2295 -1051 189 -20 647 -23 830 -5 783 76 1460 314 2095 736 487 324 920 756
1235 1230 29 44 57 85 62 90 11 12 -69 -171 -113 -257 -17 -33 -27 -64 -22
-68 10 -9 155 -72 158 -68 1 2 38 48 82 103 364 455 574 834 716 1295 281 908
348 1853 191 2680 -116 612 -367 1189 -728 1675 -433 582 -1007 1050 -1761
1436 -557 286 -1042 438 -1642 515 -114 15 -698 27 -818 18z m-2522 -1707 c82
-69 168 -117 415 -232 268 -123 351 -176 483 -305 126 -124 174 -194 274 -406
40 -85 75 -157 77 -160 6 -5 98 315 114 396 18 87 17 261 -1 336 -8 34 -25 87
-39 118 -14 31 -22 56 -19 56 12 0 110 -64 155 -101 25 -22 71 -72 101 -112
57 -74 249 -425 241 -439 -3 -4 -16 -8 -29 -8 -60 0 -181 -83 -267 -183 -180
-209 -410 -666 -517 -1027 -41 -136 -40 -147 7 -167 63 -27 193 -63 282 -79
89 -16 343 -22 415 -10 39 7 41 9 43 44 4 52 13 84 112 387 93 285 142 458
160 565 5 36 13 80 16 98 l5 34 84 -81 c97 -93 208 -178 322 -244 69 -41 398
-195 453 -212 12 -4 -15 55 -91 197 -254 472 -314 719 -200 822 20 18 20 18
30 -5 194 -459 411 -784 733 -1094 188 -181 252 -232 794 -632 228 -167 344
-264 470 -394 163 -168 279 -339 375 -551 24 -54 47 -98 51 -98 14 0 241 333
288 422 26 51 59 129 73 173 30 97 52 257 44 331 -3 30 -3 54 0 54 4 0 40 -26
82 -57 262 -196 429 -439 579 -843 66 -177 114 -332 282 -918 77 -268 142
-491 143 -497 2 -5 58 87 125 205 67 118 122 212 122 207 0 -4 -16 -58 -36
-120 -414 -1286 -1430 -2315 -2709 -2742 -805 -269 -1708 -295 -2490 -70
-1141 327 -1976 1163 -2372 2375 -92 281 -170 653 -208 990 -21 185 -31 440
-18 440 6 0 44 -15 84 -33 41 -19 117 -51 170 -72 l96 -37 6 -302 c3 -166 13
-366 22 -446 65 -597 228 -1096 482 -1485 96 -147 145 -207 268 -334 322 -331
676 -519 1185 -629 116 -25 142 -27 360 -27 255 1 323 9 536 65 553 146 1047
523 1360 1036 214 352 350 761 408 1224 23 179 37 492 29 651 l-6 136 82 6
c118 9 236 43 261 74 28 36 26 88 -5 118 -28 29 -64 32 -145 10 -207 -55 -385
-12 -514 125 -181 192 -178 392 8 588 39 41 94 88 123 104 28 16 56 34 61 41
33 42 19 108 -29 133 -97 50 -324 -137 -425 -351 -16 -33 -33 -63 -38 -66 -50
-37 -800 -46 -1216 -15 -667 48 -1643 172 -2143 272 -604 120 -1097 331 -1260
539 -76 98 -103 239 -73 370 9 39 42 133 73 210 203 509 502 973 882 1367 101
105 327 318 338 318 2 0 32 -24 66 -53z m-788 -2726 c246 -98 592 -187 970
-250 522 -87 1330 -185 1870 -227 395 -30 1141 -29 1246 2 13 4 19 -8 29 -63
8 -40 31 -103 56 -152 24 -47 42 -86 40 -88 -14 -14 -430 -120 -676 -173
-1165 -249 -2217 -212 -3209 111 -272 89 -691 270 -691 299 0 5 50 142 111
304 l112 295 36 -15 c20 -9 68 -28 106 -43z"/>
<path d="M1935 7480 c-93 -17 -207 -83 -308 -180 -166 -158 -477 -628 -574
-867 l-36 -87 39 -33 c22 -18 89 -58 149 -88 124 -62 257 -100 387 -111 l84
-6 24 68 c64 192 327 724 497 1008 64 106 65 109 54 147 -33 110 -171 174
-316 149z"/>
<path d="M2230 6366 c-199 -43 -315 -226 -282 -444 39 -246 250 -418 472 -383
92 15 129 86 76 148 -23 26 -31 28 -119 33 -84 5 -99 9 -137 35 -23 16 -55 52
-71 80 -89 155 -41 324 99 354 55 11 150 3 207 -19 76 -29 145 6 145 74 0 65
-55 99 -204 125 -74 13 -115 13 -186 -3z"/>
</g>
</svg>
